<?xml version="1.0" encoding="UTF-8"?>
<svg id="Layer_1" xmlns="http://www.w3.org/2000/svg" xmlns:xlink="http://www.w3.org/1999/xlink" version="1.1" viewBox="0 0 544.1 98.3">
  <!-- Generator: Adobe Illustrator 29.3.1, SVG Export Plug-In . SVG Version: 2.1.0 Build 151)  -->
  <defs>
    <style>
      .st0 {
        fill: url(#linear-gradient);
      }

      .st1 {
        fill: #070000;
      }
    </style>
    <linearGradient id="linear-gradient" x1="22.7" y1="31.5" x2="172.1" y2="67.2" gradientUnits="userSpaceOnUse">
      <stop offset="0" stop-color="#c93273"/>
      <stop offset=".4" stop-color="#e03234"/>
      <stop offset="1" stop-color="#f1bf15"/>
    </linearGradient>
  </defs>
  <g>
    <path class="st1" d="M172.7,35.8c0-2.7,1.3-5.7,3.6-7.9,2-2,5.6-4.3,11.4-4.3h0c4.9,0,8.8,1.5,11.5,4.5,3.6,3.9,3.8,9,3.7,10.9h-6.9c0-.5.1-4-1.9-6.2-1.3-1.5-3.5-2.2-6.3-2.2h0c-3.5,0-5.5,1.3-6.5,2.3-1.1,1.1-1.5,2.3-1.5,3,0,1.2,0,3.1,8,5.7l1.4.4c6.4,2,13.6,4.3,14,10.7,0,1.1,0,4.8-3,8.1-2.7,2.9-6.8,4.4-12.2,4.4h0c-4.4,0-8.2-1.5-10.9-4.3-2.7-2.8-4.3-6.6-4.2-10.6h6.9c0,2.2.8,4.3,2.2,5.8,1.5,1.5,3.5,2.2,6,2.2h0c3.3,0,5.8-.7,7.1-2.2,1.2-1.3,1.1-2.8,1.1-2.9-.1-1.6-6.3-3.6-9.2-4.6l-1.5-.5c-9.1-3-12.8-6.5-12.8-12.2Z"/>
    <path class="st1" d="M236.1,49.3c0,8.8-6.7,15.9-15,15.9s-5.2-.7-7.4-2v12.2h-6.9v-41h6.9v1.1c2.2-1.3,4.7-2.1,7.4-2.1,8.3,0,15,7.1,15,15.9ZM229.2,49.3s0,0,0,0c0-4.8-3.2-8.6-7.2-8.9h0c-.2,0-.3,0-.5,0s-.1,0-.2,0c0,0-.1,0-.2,0-.1,0-.3,0-.4,0,0,0,0,0,0,0-1.5.1-2.7.8-3.7,1.6-2,1.6-3.2,4.3-3.2,7.3s0,0,0,0,0,0,0,0c0,.2,0,.5,0,.7,0,.1,0,.2,0,.4,0,0,0,.2,0,.2.1.8.3,1.6.6,2.3.8,2.1,2.3,4.1,4.9,4.9.5.2,1.1.3,1.7.3,0,0,0,0,0,0,0,0,0,0,0,0,0,0,.2,0,.3,0s.1,0,.2,0c.2,0,.4,0,.6,0,0,0,0,0,0,0,1-.1,2-.5,2.9-1,0,0,0,0,0,0,.2-.1.4-.2.5-.4.1-.1.3-.2.4-.3,0,0,0,0,.1-.1,1.8-1.6,2.9-4.2,2.9-7,0,0,0,0,0,0Z"/>
    <path class="st1" d="M262.4,42.2v22.3h-6.9v-1.3c-2.5,1.7-5.1,1.9-6.3,1.9-6.1,0-11.1-5-11.1-11.1s5-11.1,11.1-11.1h6.3v-.7c0-1.1-.9-1.9-1.9-1.9h-4.4v-6.9h4.4c4.9,0,8.8,4,8.8,8.8ZM255.4,49.8h-6.2c-2.3,0-4.2,1.9-4.2,4.2s1.9,4.2,4.2,4.2c4.2,0,5.7-4.8,6.2-8.4Z"/>
    <path class="st1" d="M283.1,33.3v6.9h-9.1v24.9h-6.9v-31.8h16Z"/>
    <path class="st1" d="M302.2,47l12.4,18.2h-8.4l-9-13.4-4.4,4.1v9.2h-6.9V23.6h6.9v23.8l15.1-14.1h8.7c0,.1-14.3,13.8-14.3,13.8Z"/>
    <path class="st1" d="M350.9,33.3l-13.5,31.8h-7.5l-13.8-31.8h7.5l9.9,23,9.7-23h7.5Z"/>
    <path class="st1" d="M357,51.6c.8,4,4.1,7,8,7s5.5-1.7,6.9-4.2h7.2c-1.9,6.3-7.5,10.9-14.1,10.9s-14.8-7-14.8-15.7,6.6-15.7,14.8-15.7,12.2,4.6,14.1,10.9c.5,1.5.7,3.2.7,4.9s0,1.4-.1,2.1h-22.7ZM371.9,44.7c-1.4-2.5-4-4.2-6.9-4.2s-5.5,1.7-6.9,4.2h13.8Z"/>
    <path class="st1" d="M412.6,49.2v15.9h-6.9v-15.9c0-4.9-3.6-9-8-9s-8,4-8,9v15.9h-6.9v-15.9c0-8.8,6.7-15.9,15-15.9s15,7.1,15,15.9Z"/>
    <path class="st1" d="M428.4,58.3v6.9h-2.7c-4.9,0-8.9-4-8.9-8.9v-29.5h6.9v8.4h4.5v6.9h-4.5v14.2c0,1.1.9,2,2,2h2.7Z"/>
    <path class="st1" d="M461.5,33.4v15.9c0,8.8-6.7,15.9-15,15.9s-15-7.1-15-15.9v-15.9h6.9v15.9c0,4.9,3.6,9,8,9s8-4,8-9v-15.9h6.9Z"/>
    <path class="st1" d="M481.7,33.3v6.9h-9.1v24.9h-6.9v-31.8h16Z"/>
    <path class="st1" d="M489.5,51.6c.8,4,4.1,7,8,7s5.5-1.7,6.9-4.2h7.2c-1.9,6.3-7.5,10.9-14.1,10.9s-14.8-7-14.8-15.7,6.6-15.7,14.8-15.7,12.2,4.6,14.1,10.9c.5,1.5.7,3.2.7,4.9s0,1.4-.1,2.1h-22.7ZM504.4,44.7c-1.4-2.5-4-4.2-6.9-4.2s-5.5,1.7-6.9,4.2h13.8Z"/>
  </g>
  <path class="st0" d="M148.9,27.4c-5-5.8-10.7-8.2-10.9-8.3h0c-19.8-7.9-35.8,6.2-41.8,12.6-2.9,3.2-6.1,6.4-9.6,9.8l-7.4,7.2,11.6,12.7c-7,7.2-13,10.7-16.9,12.4-4.5,1.9-7.2,1.9-7.2,1.9h-.1s-.1,0-.1,0c-6.2.4-11.7-.9-16.6-3.8-6.1-3.6-10.5-9.9-12.2-17.1-.7-3.1-1-6.1-.8-9.1.6-8.5,5.5-16.1,13.1-20.4,10.6-6,19.2-3.3,23.3-1.2-.1.5-.2,1.1-.2,1.7,0,3.5,2.9,6.4,6.4,6.4s6.4-2.9,6.4-6.4-2.9-6.4-6.4-6.4-2.1.3-3,.7c-1.6-.9-3.8-1.9-6.6-2.6-5.1-1.3-13.2-1.8-22.4,3.4-9.2,5.2-15,14.3-15.7,24.5-.2,3.4,0,7,.9,10.5,2,8.5,7.3,15.9,14.5,20.2,5.1,3,10.7,4.6,16.9,4.6s1.7,0,2.5,0c1.6,0,13.7-.6,29.3-17.6l1.6-1.7-11.4-12.5,3.9-3.8c3.6-3.5,6.8-6.8,9.8-10,5.2-5.6,19.3-18,36.2-11.4.4.2,5.1,2.3,9.2,7.1,5.5,6.5,7.2,14.6,5.1,24.1-.8,3.5-2.3,6.7-4.4,9.5-.3.4-.7.9-1,1.3-6.5,7.9-16.6,11.5-26.3,9.3-1-.2-1.9-.5-2.8-.8.1-.6.2-1.3.2-2,0-5.2-4.2-9.4-9.4-9.4s-9.4,4.2-9.4,9.4,4.2,9.4,9.4,9.4,5.1-1.1,6.8-2.9c1.3.5,2.7.9,4.1,1.2,11.5,2.5,23.5-1.7,31.2-11,.4-.5.8-1,1.1-1.4,2.6-3.4,4.4-7.2,5.3-11.5,3.1-13.9-1.7-23.3-6.3-28.6Z"/>
</svg>